<svg width="400" height="50" viewBox="0 0 400 50" fill="none" xmlns="http://www.w3.org/2000/svg">
<path fill-rule="evenodd" clip-rule="evenodd" d="M40 7H28V11H24V15H20V19H16V21H14V29H16V31H20V35H24V39H28V43H40V7ZM24 31V27H20V23H24V19H28V15H32V11H36V39H32V35H28V31H24ZM12 7H8V43H12V7Z" fill="black"/>
<path d="M86 23V21H84V19H80V15H76V11H72V7H60V43H72V41V39H76V35H80V31H84V29H86V27H88V23H86ZM76 27V31H72V35H68V39H64V11H68V15H72V19H76V23H80V27H76Z" fill="black"/>
<path fill-rule="evenodd" clip-rule="evenodd" d="M114 40V8H120V40H114ZM128 40V8H134V40H128Z" fill="black"/>
<path fill-rule="evenodd" clip-rule="evenodd" d="M158 7H170V11H174V15H178V19H182V21H184V29H182V31H178V35H174V39H170V43H158V7ZM174 31V27H178V23H174V19H170V15H166V11H162V39H166V35H170V31H174ZM186 7H190V43H186V7Z" fill="black"/>
<line x1="211.96" y1="7" x2="211.96" y2="11.349" stroke="black" stroke-width="4.34897"/>
<line x1="216.309" y1="7" x2="216.309" y2="11.349" stroke="black" stroke-width="4.34897"/>
<line x1="218.483" y1="7" x2="218.483" y2="11.349" stroke="black" stroke-width="4.34897"/>
<line x1="222.832" y1="7" x2="222.832" y2="11.349" stroke="black" stroke-width="4.34897"/>
<line x1="227.181" y1="7" x2="227.181" y2="11.349" stroke="black" stroke-width="4.34897"/>
<line x1="231.53" y1="7" x2="231.53" y2="11.349" stroke="black" stroke-width="4.34897"/>
<line x1="235.879" y1="7" x2="235.879" y2="11.349" stroke="black" stroke-width="4.34897"/>
<line x1="209.785" y1="8.08724" x2="209.785" y2="12.4362" stroke="black" stroke-width="4.34897"/>
<line x1="209.785" y1="12.4362" x2="209.785" y2="16.7852" stroke="black" stroke-width="4.34897"/>
<line x1="209.785" y1="16.7852" x2="209.785" y2="21.1342" stroke="black" stroke-width="4.34897"/>
<line x1="209.785" y1="24.3959" x2="209.785" y2="28.7449" stroke="black" stroke-width="4.34897"/>
<line x1="213.047" y1="22.2214" x2="213.047" y2="26.5704" stroke="black" stroke-width="4.34897"/>
<line x1="206.524" y1="22.2214" x2="206.524" y2="26.5704" stroke="black" stroke-width="4.34897"/>
<line x1="217.396" y1="16.7852" x2="217.396" y2="21.1342" stroke="black" stroke-width="4.34897"/>
<line x1="204.349" y1="20.0469" x2="204.349" y2="24.3959" stroke="black" stroke-width="4.34897"/>
<line x1="215.222" y1="20.0469" x2="215.222" y2="24.3959" stroke="black" stroke-width="4.34897"/>
<line x1="202.174" y1="16.7852" x2="202.174" y2="21.1342" stroke="black" stroke-width="4.34897"/>
<line x1="238.054" y1="8.08724" x2="238.054" y2="12.4362" stroke="black" stroke-width="4.34897"/>
<line x1="235.879" y1="40.7045" x2="235.879" y2="36.3556" stroke="black" stroke-width="4.34897"/>
<line x1="231.53" y1="40.7045" x2="231.53" y2="36.3556" stroke="black" stroke-width="4.34897"/>
<line x1="229.356" y1="40.7045" x2="229.356" y2="36.3556" stroke="black" stroke-width="4.34897"/>
<line x1="225.007" y1="40.7045" x2="225.007" y2="36.3556" stroke="black" stroke-width="4.34897"/>
<line x1="220.658" y1="40.7045" x2="220.658" y2="36.3556" stroke="black" stroke-width="4.34897"/>
<line x1="216.309" y1="40.7045" x2="216.309" y2="36.3556" stroke="black" stroke-width="4.34897"/>
<line x1="211.96" y1="40.7045" x2="211.96" y2="36.3556" stroke="black" stroke-width="4.34897"/>
<line x1="238.054" y1="39.6173" x2="238.054" y2="35.2683" stroke="black" stroke-width="4.34897"/>
<line x1="238.054" y1="35.2683" x2="238.054" y2="30.9194" stroke="black" stroke-width="4.34897"/>
<line x1="238.054" y1="30.9194" x2="238.054" y2="26.5704" stroke="black" stroke-width="4.34897"/>
<line x1="238.054" y1="23.3087" x2="238.054" y2="18.9597" stroke="black" stroke-width="4.34897"/>
<line x1="234.792" y1="25.4831" x2="234.792" y2="21.1342" stroke="black" stroke-width="4.34897"/>
<line x1="241.315" y1="25.4831" x2="241.315" y2="21.1342" stroke="black" stroke-width="4.34897"/>
<line x1="230.443" y1="30.9194" x2="230.443" y2="26.5704" stroke="black" stroke-width="4.34897"/>
<line x1="243.49" y1="27.6576" x2="243.49" y2="23.3086" stroke="black" stroke-width="4.34897"/>
<line x1="232.617" y1="27.6576" x2="232.617" y2="23.3086" stroke="black" stroke-width="4.34897"/>
<line x1="245.664" y1="30.9194" x2="245.664" y2="26.5704" stroke="black" stroke-width="4.34897"/>
<line x1="209.785" y1="39.6173" x2="209.785" y2="35.2683" stroke="black" stroke-width="4.34897"/>
<line x1="261.96" y1="7" x2="261.96" y2="11.349" stroke="black" stroke-width="4.34897"/>
<line x1="266.309" y1="7" x2="266.309" y2="11.349" stroke="black" stroke-width="4.34897"/>
<line x1="268.483" y1="7" x2="268.483" y2="11.349" stroke="black" stroke-width="4.34897"/>
<line x1="272.832" y1="7" x2="272.832" y2="11.349" stroke="black" stroke-width="4.34897"/>
<line x1="274.174" y1="14.7045" x2="274.174" y2="19.0535" stroke="black" stroke-width="4.34897"/>
<line x1="274.174" y1="18.7045" x2="274.174" y2="23.0535" stroke="black" stroke-width="4.34897"/>
<line x1="274.174" y1="22.7045" x2="274.174" y2="27.0535" stroke="black" stroke-width="4.34897"/>
<line x1="274.174" y1="28.7045" x2="274.174" y2="33.0535" stroke="black" stroke-width="4.34897"/>
<line x1="277.181" y1="7" x2="277.181" y2="11.349" stroke="black" stroke-width="4.34897"/>
<line x1="281.53" y1="7" x2="281.53" y2="11.349" stroke="black" stroke-width="4.34897"/>
<line x1="285.879" y1="7" x2="285.879" y2="11.349" stroke="black" stroke-width="4.34897"/>
<line x1="259.785" y1="8.08724" x2="259.785" y2="12.4362" stroke="black" stroke-width="4.34897"/>
<line x1="259.785" y1="12.4362" x2="259.785" y2="16.7852" stroke="black" stroke-width="4.34897"/>
<line x1="259.785" y1="16.7852" x2="259.785" y2="21.1342" stroke="black" stroke-width="4.34897"/>
<line x1="259.785" y1="24.3959" x2="259.785" y2="28.7449" stroke="black" stroke-width="4.34897"/>
<line x1="263.047" y1="22.2214" x2="263.047" y2="26.5704" stroke="black" stroke-width="4.34897"/>
<line x1="256.524" y1="22.2214" x2="256.524" y2="26.5704" stroke="black" stroke-width="4.34897"/>
<line x1="267.396" y1="16.7852" x2="267.396" y2="21.1342" stroke="black" stroke-width="4.34897"/>
<line x1="254.349" y1="20.0469" x2="254.349" y2="24.3959" stroke="black" stroke-width="4.34897"/>
<line x1="265.222" y1="20.0469" x2="265.222" y2="24.3959" stroke="black" stroke-width="4.34897"/>
<line x1="252.174" y1="16.7852" x2="252.174" y2="21.1342" stroke="black" stroke-width="4.34897"/>
<line x1="288.054" y1="8.08724" x2="288.054" y2="12.4362" stroke="black" stroke-width="4.34897"/>
<line x1="285.879" y1="40.7045" x2="285.879" y2="36.3556" stroke="black" stroke-width="4.34897"/>
<line x1="281.53" y1="40.7045" x2="281.53" y2="36.3556" stroke="black" stroke-width="4.34897"/>
<line x1="279.356" y1="40.7045" x2="279.356" y2="36.3556" stroke="black" stroke-width="4.34897"/>
<line x1="275.007" y1="40.7045" x2="275.007" y2="36.3556" stroke="black" stroke-width="4.34897"/>
<line x1="270.658" y1="40.7045" x2="270.658" y2="36.3556" stroke="black" stroke-width="4.34897"/>
<line x1="266.309" y1="40.7045" x2="266.309" y2="36.3556" stroke="black" stroke-width="4.34897"/>
<line x1="261.96" y1="40.7045" x2="261.96" y2="36.3556" stroke="black" stroke-width="4.34897"/>
<line x1="288.054" y1="39.6173" x2="288.054" y2="35.2683" stroke="black" stroke-width="4.34897"/>
<line x1="288.054" y1="35.2683" x2="288.054" y2="30.9194" stroke="black" stroke-width="4.34897"/>
<line x1="288.054" y1="30.9194" x2="288.054" y2="26.5704" stroke="black" stroke-width="4.34897"/>
<line x1="288.054" y1="23.3087" x2="288.054" y2="18.9597" stroke="black" stroke-width="4.34897"/>
<line x1="284.792" y1="25.4831" x2="284.792" y2="21.1342" stroke="black" stroke-width="4.34897"/>
<line x1="291.315" y1="25.4831" x2="291.315" y2="21.1342" stroke="black" stroke-width="4.34897"/>
<line x1="280.443" y1="30.9194" x2="280.443" y2="26.5704" stroke="black" stroke-width="4.34897"/>
<line x1="293.49" y1="27.6576" x2="293.49" y2="23.3086" stroke="black" stroke-width="4.34897"/>
<line x1="282.617" y1="27.6576" x2="282.617" y2="23.3086" stroke="black" stroke-width="4.34897"/>
<line x1="295.664" y1="30.9194" x2="295.664" y2="26.5704" stroke="black" stroke-width="4.34897"/>
<line x1="259.785" y1="39.6173" x2="259.785" y2="35.2683" stroke="black" stroke-width="4.34897"/>
<line x1="311.96" y1="7" x2="311.96" y2="11.349" stroke="black" stroke-width="4.34897"/>
<line x1="316.309" y1="7" x2="316.309" y2="11.349" stroke="black" stroke-width="4.34897"/>
<line x1="318.483" y1="7" x2="318.483" y2="11.349" stroke="black" stroke-width="4.34897"/>
<line x1="322.832" y1="7" x2="322.832" y2="11.349" stroke="black" stroke-width="4.34897"/>
<line x1="333.174" y1="13.7045" x2="333.174" y2="18.0535" stroke="black" stroke-width="4.34897"/>
<line x1="331.174" y1="15.7045" x2="331.174" y2="20.0535" stroke="black" stroke-width="4.34897"/>
<line x1="328.174" y1="17.7045" x2="328.174" y2="22.0535" stroke="black" stroke-width="4.34897"/>
<line x1="326.174" y1="20.7045" x2="326.174" y2="25.0535" stroke="black" stroke-width="4.34897"/>
<line x1="324.174" y1="22.7045" x2="324.174" y2="27.0535" stroke="black" stroke-width="4.34897"/>
<line x1="322.174" y1="24.7045" x2="322.174" y2="29.0535" stroke="black" stroke-width="4.34897"/>
<line x1="320.174" y1="26.7045" x2="320.174" y2="31.0535" stroke="black" stroke-width="4.34897"/>
<line x1="318.174" y1="28.7045" x2="318.174" y2="33.0535" stroke="black" stroke-width="4.34897"/>
<line x1="316.174" y1="30.7045" x2="316.174" y2="35.0535" stroke="black" stroke-width="4.34897"/>
<line x1="327.181" y1="7" x2="327.181" y2="11.349" stroke="black" stroke-width="4.34897"/>
<line x1="331.53" y1="7" x2="331.53" y2="11.349" stroke="black" stroke-width="4.34897"/>
<line x1="335.879" y1="7" x2="335.879" y2="11.349" stroke="black" stroke-width="4.34897"/>
<line x1="309.785" y1="8.08724" x2="309.785" y2="12.4362" stroke="black" stroke-width="4.34897"/>
<line x1="309.785" y1="12.4362" x2="309.785" y2="16.7852" stroke="black" stroke-width="4.34897"/>
<line x1="309.785" y1="16.7852" x2="309.785" y2="21.1342" stroke="black" stroke-width="4.34897"/>
<line x1="309.785" y1="24.3959" x2="309.785" y2="28.7449" stroke="black" stroke-width="4.34897"/>
<line x1="313.047" y1="22.2214" x2="313.047" y2="26.5704" stroke="black" stroke-width="4.34897"/>
<line x1="306.524" y1="22.2214" x2="306.524" y2="26.5704" stroke="black" stroke-width="4.34897"/>
<line x1="317.396" y1="16.7852" x2="317.396" y2="21.1342" stroke="black" stroke-width="4.34897"/>
<line x1="304.349" y1="20.0469" x2="304.349" y2="24.3959" stroke="black" stroke-width="4.34897"/>
<line x1="315.222" y1="20.0469" x2="315.222" y2="24.3959" stroke="black" stroke-width="4.34897"/>
<line x1="302.174" y1="16.7852" x2="302.174" y2="21.1342" stroke="black" stroke-width="4.34897"/>
<line x1="338.054" y1="8.08724" x2="338.054" y2="12.4362" stroke="black" stroke-width="4.34897"/>
<line x1="334.826" y1="38.0535" x2="334.826" y2="33.7045" stroke="black" stroke-width="4.34897"/>
<line x1="339.826" y1="31.0535" x2="339.826" y2="26.7045" stroke="black" stroke-width="4.34897"/>
<line x1="339.826" y1="28.0535" x2="339.826" y2="23.7045" stroke="black" stroke-width="4.34897"/>
<line x1="339.826" y1="24.0535" x2="339.826" y2="19.7045" stroke="black" stroke-width="4.34897"/>
<line x1="339.826" y1="23.0535" x2="339.826" y2="18.7045" stroke="black" stroke-width="4.34897"/>
<line x1="336.826" y1="34.0535" x2="336.826" y2="29.7045" stroke="black" stroke-width="4.34897"/>
<line x1="332.047" y1="41.1408" x2="332.047" y2="36.7918" stroke="black" stroke-width="4.34897"/>
<line x1="327.698" y1="41.1408" x2="327.698" y2="36.7918" stroke="black" stroke-width="4.34897"/>
<line x1="323.349" y1="41.1408" x2="323.349" y2="36.7918" stroke="black" stroke-width="4.34897"/>
<line x1="319" y1="41.1408" x2="319" y2="36.7918" stroke="black" stroke-width="4.34897"/>
<line x1="309.826" y1="36.0535" x2="309.826" y2="31.7045" stroke="black" stroke-width="4.34897"/>
<line x1="309.826" y1="39.0535" x2="309.826" y2="34.7045" stroke="black" stroke-width="4.34897"/>
<line x1="316.826" y1="40.0535" x2="316.826" y2="35.7045" stroke="black" stroke-width="4.34897"/>
<line x1="355" y1="10" x2="393" y2="10" stroke="black" stroke-width="4"/>
<line x1="355" y1="19" x2="393" y2="19" stroke="black" stroke-width="4"/>
<line x1="355" y1="28" x2="393" y2="28" stroke="black" stroke-width="4"/>
<line x1="355" y1="37" x2="393" y2="37" stroke="black" stroke-width="4"/>
<line x1="34" y1="11" x2="34" y2="15" stroke="black" stroke-width="4"/>
<line x1="34" y1="15" x2="34" y2="19" stroke="black" stroke-width="4"/>
<line x1="34" y1="19" x2="34" y2="23" stroke="black" stroke-width="4"/>
<line x1="34" y1="23" x2="34" y2="27" stroke="black" stroke-width="4"/>
<line x1="34" y1="27" x2="34" y2="31" stroke="black" stroke-width="4"/>
<line x1="34" y1="31" x2="34" y2="35" stroke="black" stroke-width="4"/>
<line x1="34" y1="35" x2="34" y2="39" stroke="black" stroke-width="4"/>
<line x1="30" y1="31" x2="30" y2="35" stroke="black" stroke-width="4"/>
<line x1="30" y1="28" x2="30" y2="32" stroke="black" stroke-width="4"/>
<line x1="25" y1="28" x2="25" y2="32" stroke="black" stroke-width="4"/>
<line x1="26" y1="28" x2="26" y2="32" stroke="black" stroke-width="4"/>
<line x1="22" y1="23" x2="22" y2="27" stroke="black" stroke-width="4"/>
<line x1="30" y1="24" x2="30" y2="28" stroke="black" stroke-width="4"/>
<line x1="26" y1="24" x2="26" y2="28" stroke="black" stroke-width="4"/>
<line x1="30" y1="21" x2="30" y2="25" stroke="black" stroke-width="4"/>
<line x1="26" y1="21" x2="26" y2="25" stroke="black" stroke-width="4"/>
<line x1="30" y1="18" x2="30" y2="22" stroke="black" stroke-width="4"/>
<line x1="66" y1="11" x2="66" y2="40" stroke="black" stroke-width="4"/>
<line x1="70" y1="11" x2="70" y2="40" stroke="black" stroke-width="4"/>
<line x1="74" y1="17" x2="74" y2="34" stroke="black" stroke-width="4"/>
<line x1="164" y1="10" x2="164" y2="41" stroke="black" stroke-width="4"/>
<line x1="172" y1="13" x2="172" y2="38" stroke="black" stroke-width="4"/>
<line x1="78" y1="19" x2="78" y2="31" stroke="black" stroke-width="4"/>
<line x1="26" y1="18" x2="26" y2="22" stroke="black" stroke-width="4"/>
<line x1="30" y1="15" x2="30" y2="19" stroke="black" stroke-width="4"/>
<line x1="168" y1="15" x2="168" y2="35" stroke="black" stroke-width="4"/>
<line x1="176" y1="22" x2="176" y2="30" stroke="black" stroke-width="4"/>
</svg>
